<svg version="1.0" xmlns="http://www.w3.org/2000/svg"
 width="1076.000000pt" height="1073.000000pt" viewBox="0 0 1076.000000 1073.000000"
 preserveAspectRatio="xMidYMid meet">
<g transform="translate(0.000000,1073.000000) scale(0.100000,-0.100000)"
fill="#000000" stroke="none">
<path d="M4950 10719 c-1887 -153 -3548 -1272 -4389 -2959 -131 -264 -202
-433 -291 -700 -137 -410 -226 -852 -260 -1289 -13 -174 -13 -638 0 -812 71
-921 377 -1808 889 -2574 432 -647 1022 -1211 1686 -1612 724 -437 1531 -695
2384 -762 174 -14 648 -14 822 0 1559 122 2966 892 3899 2134 207 275 356 518
514 835 311 626 492 1282 546 1979 13 174 13 638 0 812 -71 921 -377 1808
-889 2574 -432 647 -1022 1211 -1686 1612 -724 437 -1531 695 -2384 762 -156
13 -687 12 -841 0z m-3460 -2779 l0 -399 57 40 c80 56 166 80 283 80 122 0
206 -25 288 -86 103 -75 175 -181 207 -306 24 -89 16 -270 -14 -354 -119 -331
-515 -452 -778 -238 l-43 34 0 -55 0 -56 -180 0 -180 0 0 863 c0 475 3 867 7
870 3 4 84 7 180 7 l173 0 0 -400z m1278 -472 l2 -868 -180 0 -180 0 0 863 c0
475 3 867 7 871 4 3 84 5 177 4 l171 -3 3 -867z m2672 339 l5 -527 180 180
180 180 222 0 c123 0 223 -3 223 -7 0 -5 -109 -117 -242 -250 l-243 -243 270
-270 270 -270 -230 0 -230 0 -202 202 -203 203 0 -203 0 -202 -180 0 -180 0 0
870 0 870 178 -2 177 -3 5 -528z m-1918 -172 c37 -12 90 -39 118 -60 l50 -37
0 51 0 51 175 0 175 0 0 -520 0 -520 -175 0 -175 0 0 55 0 56 -52 -40 c-69
-51 -121 -76 -186 -90 -268 -57 -528 108 -598 380 -22 85 -22 238 1 315 49
169 171 307 315 359 101 37 245 37 352 0z m1335 9 c65 -14 145 -48 162 -67 6
-8 -8 -49 -45 -126 -30 -63 -56 -117 -59 -119 -2 -3 -21 4 -42 14 -49 23 -151
30 -211 13 -64 -18 -133 -87 -157 -158 -50 -150 48 -312 202 -337 44 -7 133 9
176 31 l27 14 61 -121 61 -121 -24 -19 c-49 -37 -213 -78 -318 -78 -242 0
-464 152 -550 375 -19 48 -24 80 -24 165 -1 157 36 250 143 364 158 167 356
224 598 170z m2883 -2084 l0 -870 -175 0 -175 0 0 61 0 62 -44 -41 c-142 -131
-383 -149 -560 -42 -113 68 -212 206 -236 331 -6 30 -13 64 -16 77 l-4 22
-370 0 -370 0 0 -30 c0 -107 100 -184 237 -182 83 1 137 21 198 75 l40 35 128
-64 128 -65 -33 -46 c-18 -25 -53 -63 -78 -85 -170 -147 -479 -181 -692 -76
-93 46 -208 164 -253 259 -61 130 -67 288 -15 420 63 158 225 297 395 339 69
17 237 14 309 -5 194 -51 330 -194 369 -384 l13 -62 12 59 c18 86 66 175 135
249 103 110 206 154 363 154 125 1 206 -24 291 -87 17 -13 34 -24 37 -24 3 0
6 175 6 388 0 214 3 392 7 395 3 4 84 7 180 7 l173 0 0 -870z m-5955 186 c117
-10 249 -69 347 -155 172 -152 217 -424 105 -635 -47 -90 -141 -178 -240 -225
-45 -21 -107 -45 -137 -52 -81 -20 -299 -17 -379 5 -350 96 -517 440 -369 755
58 122 208 242 360 288 55 16 184 31 228 27 14 -2 52 -5 85 -8z m3263 -7 c74
-15 184 -72 227 -120 21 -23 49 -67 64 -98 l26 -56 3 -387 3 -388 -180 0 -181
0 0 318 c0 286 -2 321 -19 357 -34 75 -122 125 -194 109 -82 -17 -157 -83
-177 -154 -6 -19 -10 -169 -10 -332 l0 -298 -175 0 -175 0 0 497 c0 273 -3
493 -7 489 -5 -4 -126 -227 -269 -494 l-262 -487 -123 0 -123 0 -115 258 c-63
141 -117 257 -121 257 -4 0 -58 -116 -121 -257 l-115 -258 -124 0 -123 0 -274
510 c-150 281 -273 513 -273 518 0 4 89 7 199 7 147 0 201 -3 208 -12 5 -7 63
-133 129 -279 65 -147 121 -265 124 -262 3 2 59 127 126 276 l121 272 123 0
123 0 98 -220 c54 -121 110 -247 124 -279 l26 -60 122 270 c67 148 126 275
130 282 6 9 93 12 378 12 l369 0 0 -55 c0 -30 3 -55 6 -55 3 0 24 16 47 35
107 92 217 115 385 84z m-3123 -1921 c125 -26 238 -106 284 -200 35 -73 41
-146 41 -510 l0 -338 -179 0 -180 0 -3 323 c-3 311 -4 323 -25 364 -60 112
-192 132 -293 45 -78 -66 -80 -75 -80 -424 l0 -308 -180 0 -180 0 2 518 3 517
177 3 177 2 3 -56 3 -57 44 37 c112 94 224 118 386 84z m1140 1 c166 -29 331
-145 408 -286 56 -104 74 -265 42 -388 -51 -193 -232 -350 -455 -391 -99 -19
-261 -14 -350 10 -284 78 -452 322 -412 599 47 329 376 524 767 456z m910
-288 c68 -150 126 -275 128 -277 2 -2 54 112 116 254 63 141 120 267 127 280
14 21 21 22 129 22 108 0 115 -1 128 -22 8 -13 65 -139 128 -280 62 -142 115
-256 116 -254 2 2 60 127 128 277 l123 274 201 3 c149 2 201 -1 201 -9 0 -7
-123 -241 -272 -521 l-273 -508 -121 0 -121 0 -108 243 c-59 133 -113 253
-120 266 -11 21 -22 1 -130 -243 l-118 -266 -121 0 -121 0 -273 508 c-149 279
-272 513 -272 520 0 10 47 12 200 10 l201 -3 124 -274z"/>
<path d="M1636 7345 c-47 -17 -101 -66 -129 -120 -29 -56 -29 -164 0 -220 44
-84 118 -127 218 -127 147 0 235 89 235 237 0 87 -22 138 -79 186 -66 58 -160
74 -245 44z"/>
<path d="M3366 7345 c-47 -17 -101 -66 -129 -120 -29 -56 -29 -164 0 -220 44
-84 118 -127 218 -127 142 0 238 95 237 235 0 81 -24 138 -78 185 -68 60 -162
78 -248 47z"/>
<path d="M5885 5498 c-45 -27 -85 -80 -85 -114 l0 -24 194 0 195 0 -9 29 c-13
46 -28 69 -67 98 -31 24 -47 28 -112 31 -64 2 -82 -1 -116 -20z"/>
<path d="M7067 5436 c-116 -42 -179 -167 -148 -293 28 -111 112 -175 231 -175
111 -1 183 45 225 145 17 41 20 125 5 177 -33 118 -188 190 -313 146z"/>
<path d="M1575 5427 c-88 -43 -134 -118 -135 -220 0 -145 94 -240 239 -240 79
0 130 23 184 82 96 106 67 289 -57 365 -68 42 -159 47 -231 13z"/>
<path d="M2827 3516 c-116 -42 -179 -167 -148 -293 28 -111 112 -175 231 -175
111 -1 183 45 225 145 17 41 20 125 5 177 -33 118 -188 190 -313 146z"/>
</g>
</svg>
