<svg width="140" height="53" viewBox="0 0 140 53" fill="none" xmlns="http://www.w3.org/2000/svg">
<path d="M40.2812 52H33.4961L7.72656 12.5547V52H0.941406V0.8125H7.72656L33.5664 40.4336V0.8125H40.2812V52ZM49.5273 32.6289C49.5273 28.9023 50.2539 25.5508 51.707 22.5742C53.1836 19.5977 55.2227 17.3008 57.8242 15.6836C60.4492 14.0664 63.4375 13.2578 66.7891 13.2578C71.9688 13.2578 76.1523 15.0508 79.3398 18.6367C82.5508 22.2227 84.1562 26.9922 84.1562 32.9453V33.4023C84.1562 37.1055 83.4414 40.4336 82.0117 43.3867C80.6055 46.3164 78.5781 48.6016 75.9297 50.2422C73.3047 51.8828 70.2812 52.7031 66.8594 52.7031C61.7031 52.7031 57.5195 50.9102 54.3086 47.3242C51.1211 43.7383 49.5273 38.9922 49.5273 33.0859V32.6289ZM56.0664 33.4023C56.0664 37.6211 57.0391 41.0078 58.9844 43.5625C60.9531 46.1172 63.5781 47.3945 66.8594 47.3945C70.1641 47.3945 72.7891 46.1055 74.7344 43.5273C76.6797 40.9258 77.6523 37.293 77.6523 32.6289C77.6523 28.457 76.6562 25.082 74.6641 22.5039C72.6953 19.9023 70.0703 18.6016 66.7891 18.6016C63.5781 18.6016 60.9883 19.8789 59.0195 22.4336C57.0508 24.9883 56.0664 28.6445 56.0664 33.4023ZM125.992 43.0352L133.305 13.9609H139.809L128.734 52H123.461L114.215 23.1719L105.215 52H99.9414L88.9023 13.9609H95.3711L102.859 42.4375L111.719 13.9609H116.957L125.992 43.0352Z" fill="#FDFDFD"/>
</svg>
